<?xml version="1.0" ?><!DOCTYPE svg  PUBLIC '-//W3C//DTD SVG 1.0//EN'  'http://www.w3.org/TR/2001/REC-SVG-20010904/DTD/svg10.dtd'><svg enable-background="new 0 0 350 350" height="350px" id="Layer_1" version="1.0" viewBox="0 0 350 350" width="350px" xml:space="preserve" xmlns="http://www.w3.org/2000/svg" xmlns:xlink="http://www.w3.org/1999/xlink"><g><path d="M275,267h-14v-54h-34.978l-50.338-25.168L125.348,213H91v54H75v13h200V267z M110,267h-8v-38h8V267z    M129,267h-8v-38h8V267z M146,267h-9v-38h9V267z M163,267h-8v-38h8V267z M180,267h-8v-38h8V267z M197,267h-9v-38h9V267z M213,267   h-9v-38h9V267z M232,267h-8v-38h8V267z M248,267h-8v-38h8V267z" fill="#333333"/><rect fill="#333333" height="13" width="232" x="59" y="289"/><rect fill="#333333" height="13" width="254" x="48" y="311"/><path d="M175.685,174.427L236.832,205H248v-27.44l-11,0.022V168h-8v-10.289l-3.644-3.604   c0,0,2.841-30.176-28.685-40.536c0,0,0.328-9.908-10.672-13.059V82.044c0,0-0.128-5.78-11-6.258v-18.64c10.872,6.323,18-6.317,27,0   v-21.07c-9-6.323-16.128,6.318-27,0v-1.053c0-0.583-0.338-1.056-1.5-1.056c-1.161,0-1.5,0.473-1.5,1.056v40.914   c-8,1.037-8,6.106-8,6.106v18.468c-11,3.15-10.777,13.059-10.777,13.059c-31.525,10.36-28.721,40.536-28.721,40.536L121,157.711   V168h-8v9.582l-11-0.022V205h12.537L175.685,174.427z" fill="#333333"/></g></svg>