<?xml version="1.0" ?><!DOCTYPE svg  PUBLIC '-//W3C//DTD SVG 1.0//EN'  'http://www.w3.org/TR/2001/REC-SVG-20010904/DTD/svg10.dtd'><svg enable-background="new 0 0 350 350" height="350px" id="Layer_1" version="1.0" viewBox="0 0 350 350" width="350px" xml:space="preserve" xmlns="http://www.w3.org/2000/svg" xmlns:xlink="http://www.w3.org/1999/xlink"><g><path d="M201.442,219.797c0,0-73.06-45.307-88.241-55.742c-15.181-10.438-23.087-14.407-16.82-27.753   c2.239-4.771,32.943-22.776,38.635-29.181c5.693-6.404,9.979-9.266,1.999-17.927c-5.755-6.247-18.391,0.108-18.391,0.108   l-65.672,37.511l-36.963-0.686c-26.134,22.332-6.334,79.351-6.334,79.351c20.274,4.277,25.34,9.028,25.34,9.028   s37.775,33.262,51.642,40.156c13.867,6.896,52.935,24.524,58.826,23.957c5.891-0.566,5.467-6.069,3.084-7.827   c-2.383-1.759-39.484-21.23-39.484-21.23l54.427,24.077c0,0,9.49,4.958,13.619-3.449c4.001-8.149-6.028-12.096-6.028-12.096   l-54.557-25.015l63.333,24.906c0,0,10.596,3.316,14.554-2.378c3.958-5.693,2.376-11.167-1.982-13.515   c-4.359-2.35-38.189-16.367-38.189-16.367l-24.884-18.401l56.842,25.254c0,0,10.352,6.161,15.245-1.634   C206.221,223.332,201.442,219.797,201.442,219.797z" fill="#333333"/><path d="M291.344,150.884l-17.154-10.988l-66.477,15.188l-10.679,17.348l0.571,2.499   c2.642-1.772,5.783-2.765,9.053-2.765c3.324,0,6.527,1.007,9.264,2.912l0.887,0.617c7.226,5.028,9.087,14.91,4.282,22.225   l2.534-3.642c3.033-4.358,8.018-6.961,13.334-6.961c3.325,0,6.527,1.006,9.264,2.911l0.887,0.617   c2.321,1.615,4.071,3.739,5.239,6.111l3.896-0.89c2.854-4.972,8.176-8.155,14.064-8.155c1.779,0,3.541,0.293,5.235,0.869   l1.024,0.351c1.168,0.397,2.248,0.928,3.258,1.547l5.672-1.296l10.678-17.348L291.344,150.884z M258.58,181.022   c-0.389,1.589-1.163,2.985-2.348,4.205c-1.186,1.226-2.73,2.138-4.559,2.739l0.271,1.188c0.193,0.846,0.203,1.489,0.137,1.912   c-0.064,0.422-0.41,0.706-0.932,0.825c-0.48,0.11-0.904,0.038-1.17-0.232c-0.267-0.272-0.572-0.712-0.723-1.368l-0.375-1.642   c-0.977,0.026-2.966,0.067-4.274-0.269c-1.306-0.334-2.354-0.881-3.343-1.596c-0.986-0.717-1.777-1.516-2.371-2.396   c-0.598-0.882-1.002-1.786-1.213-2.716c-0.159-0.689-0.049-1.363,0.324-2.031c0.379-0.663,0.936-1.083,1.684-1.254   c0.604-0.138,1.139-0.104,1.621,0.104c0.486,0.205,0.856,0.565,1.14,1.072c0.63,1.094,1.124,1.924,1.534,2.485   c0.408,0.563,0.896,1.052,1.555,1.443c0.66,0.391,1.331,0.653,2.328,0.71l-2.282-9.989c-1.989-0.101-3.46-0.388-4.811-0.762   c-1.353-0.377-2.455-1.102-3.479-2.134c-1.022-1.03-1.775-2.484-2.207-4.374c-0.563-2.464-0.341-4.641,0.764-6.548   c1.104-1.911,2.88-3.277,5.621-4.177l-0.35-1.532c-0.275-1.201,0.137-1.93,0.979-2.123c0.855-0.195,1.545,0.268,1.813,1.442   l0.359,1.573c0.97-0.057,2.739-0.127,3.868,0.109c1.131,0.238,2.159,0.756,3.141,1.541c0.77,0.595,1.406,1.237,1.911,1.934   c0.505,0.704,0.831,1.372,0.979,2.016c0.165,0.718,0.064,1.391-0.305,2.023c-0.368,0.636-0.893,1.031-1.589,1.19   c-1.31,0.299-2.318-0.268-3.054-1.699c-0.849-1.687-1.974-2.681-3.976-2.845l2.042,8.936c1.978,0.059,3.161,0.26,4.237,0.433   c1.076,0.179,2.059,0.563,3.006,1.145c1.012,0.599,1.865,1.396,2.564,2.387c0.697,0.994,1.2,2.139,1.498,3.441   C258.97,177.823,258.97,179.436,258.58,181.022z" fill="#333333"/><path d="M252.093,175.385c-0.868-0.514-2.483-0.754-3.524-1.013l2.148,9.404c0.869-0.497,2.166-1.406,2.703-2.448   c0.538-1.037,0.672-2.142,0.407-3.303C253.543,176.782,252.965,175.901,252.093,175.385z" fill="#333333"/><path d="M240.201,162.405c-0.494,0.729-0.532,1.675-0.261,2.863c0.259,1.133,0.698,1.93,1.419,2.376   c0.721,0.444,1.906,0.727,2.95,0.99l-1.88-8.226C241.578,160.979,240.693,161.679,240.201,162.405z" fill="#333333"/><path d="M338.425,115h-36.351l9.522,64.396l-13.191-57.771l-106.446,24.303l5.285-4.406L296.525,115h-8.55   c-29.874-2-54.556-27-69.674-27s-38.126,0-55.191,0s-24.685,27.344,41.884,27.344c7.027,0,7.693,10.278,7.693,10.278   l-67.809,49.764l23.234,14.003l12.17-7.871c0,0,2.637,2.546,6.952,6.359l3.377-4.852l-0.141-0.616l-6.999-30.63l30.376-6.939   l50.366-11.508l30.375-6.941l6.998,30.631l1.151,4.895L308.273,186h30.514C357.88,155,338.425,115,338.425,115z" fill="#333333"/><path d="M287.16,208.105c4.434-4.141,8.945-9.026,12.549-13.125l-13.486,3.081   C287.558,201.147,287.951,204.651,287.16,208.105z" fill="#333333"/><path d="M244.019,195.286l-0.888-0.618c-1.885-1.312-4.039-1.941-6.173-1.939c-3.422,0-6.789,1.618-8.892,4.64   l-15.455,22.205c-3.415,4.906-2.206,11.65,2.699,15.065l0.889,0.618c1.884,1.312,4.039,1.94,6.172,1.94   c3.422,0,6.789-1.619,8.892-4.641l15.456-22.205C250.134,205.445,248.925,198.701,244.019,195.286z" fill="#333333"/><path d="M274.824,194.253l-1.023-0.349c-1.158-0.395-2.334-0.581-3.492-0.581c-4.504,0-8.709,2.834-10.242,7.334   l-8.727,25.609c-1.928,5.658,1.097,11.807,6.755,13.734l1.024,0.349c1.156,0.395,2.333,0.581,3.49,0.581   c4.503,0,8.709-2.834,10.242-7.334l8.727-25.609C283.506,202.33,280.481,196.181,274.824,194.253z" fill="#333333"/><path d="M213.717,180.136l-0.887-0.618c-1.885-1.312-4.039-1.941-6.174-1.94c-3.422,0-6.789,1.619-8.891,4.641   l-12.455,17.894l19.914,11.169l11.193-16.079C219.832,190.295,218.623,183.551,213.717,180.136z" fill="#333333"/></g></svg>