<?xml version="1.0" ?><!DOCTYPE svg  PUBLIC '-//W3C//DTD SVG 1.0//EN'  'http://www.w3.org/TR/2001/REC-SVG-20010904/DTD/svg10.dtd'><svg enable-background="new 0 0 350 350" height="350px" id="Layer_1" version="1.0" viewBox="0 0 350 350" width="350px" xml:space="preserve" xmlns="http://www.w3.org/2000/svg" xmlns:xlink="http://www.w3.org/1999/xlink"><g><path d="M166.529,208c5.418,0,13.219,0,18.29,0c1.787,0,3.286,0,4.144,0H252c0,0,0-19.879,0-24.208   c0-13.419-26.564-30.302-45.873-39.321l-18.602,52.95c-2.524-15.136-9.525-32.327-9.525-32.327l7.505-5.725   c0-6.719-9.468-14.173-9.468-14.173s-9.521,6.771-9.521,13.606l7.401,6.383c0,0-7.96,18.705-10.118,34.265l-20.163-54.98   C123.727,153.667,101,168.82,101,183.792c0,4.329,0,24.208,0,24.208h62.259C164.169,208,165.297,208,166.529,208z" fill="#333333"/><path d="M138.366,96.481c0.022,0.205,0.038,0.447,0.066,0.648c2.197,15.635,20.862,39.507,39.266,39.065   c17.25-0.417,34.263-24.13,37.229-38.923c0.064-0.318,0.108-0.698,0.169-1.014c4.378-1.379,7.604-6.253,7.604-11.418   c0-3.813-2.992-7.812-5.812-9.878c0.026-0.142,0.158-0.886,0.146-0.924c6.34-33.821-14.674-47.79-37.974-47.79   c-23.071,0-46.578,13.74-41.584,47.858c-4.144,1.676-7.18,6.473-7.18,11.113C130.299,90.965,133.815,95.727,138.366,96.481z    M159.061,55.329c11.226,17.968,25.747,22.52,54.705,21.015c-29.678,6.531-46.021,4.787-53.561-11.827   c-3.353,13.454-8.155,14.828-18.497,11.878C152.028,76.02,151.756,73.272,159.061,55.329z" fill="#333333"/><path d="M286.669,218H66.332C57.811,218,51,225.518,51,234.041v19.38C51,261.944,57.811,269,66.332,269h21.423   l12.337,62l40.374-0.298c-0.738-3.135-1.175-6.177-1.175-9.29c0-19.997,16.214-36.354,36.209-36.354   c19.994,0,36.209,16.43,36.209,36.426c0,3.113-0.436,6.083-1.175,9.218L247.325,331l12.337-62h27.007   c8.521,0,15.331-7.056,15.331-15.579v-19.38C302,225.518,295.189,218,286.669,218z" fill="#333333"/></g></svg>