<?xml version="1.0" ?><!DOCTYPE svg  PUBLIC '-//W3C//DTD SVG 1.0//EN'  'http://www.w3.org/TR/2001/REC-SVG-20010904/DTD/svg10.dtd'><svg enable-background="new 0 0 350 350" height="350px" id="Layer_1" version="1.0" viewBox="0 0 350 350" width="350px" xml:space="preserve" xmlns="http://www.w3.org/2000/svg" xmlns:xlink="http://www.w3.org/1999/xlink"><g><g><path d="M165.181,120.896c-7.814-9.46,0-36.196,0-36.196l30.438,22.554c0.947,2.841,4.332,11.746,4.332,11.746    h17.022c0,0-5.229-14.847-10.249-21.205c-12.34-15.631-20.154-27.731-33.317-41.716c-13.162-13.985-81.028-31.757-81.028-31.757    c-15.631,24.679-8.638,50.549-8.638,50.549s31.671-2.9,33.316,7.794s8.638,32.483,21.8,41.533    c13.162,9.048,18.099,21.383,20.566,27.141s9.46,1.232,9.46,1.232C179.577,145.989,172.997,130.356,165.181,120.896z" fill="#333333"/></g><path d="M284,192.374v-0.004c0,0-15.929-14.862-23.193-20.846c-7.267-5.983-22.97-6.524-22.97-6.524   S231,165,219,165v-49h-76v49c-1,0-3.307,0-4.359,0c-17.522,0-26.216,4.453-26.216,4.453l-35.855,21.329   C68.598,194.872,63,203.128,63,212.722v87.637C63,314.227,74.682,325,88.55,325h180.734C283.152,325,295,314.227,295,300.358   v-87.637C295,204.152,290,196.769,284,192.374z M229.463,177l12.659,9H219v-9H229.463z M153,127h56v58h-56V127z M143,178.543V186   h-21.931l10.332-7.303L143,178.543z M279,300.358c0,5.016-4.699,8.642-9.716,8.642H88.55c-5.015,0-9.55-3.626-9.55-8.642v-87.637   c0-5.016,4.535-8.722,9.55-8.722h180.353h0.381c5.017,0,9.716,3.706,9.716,8.722V300.358z" fill="#333333"/></g></svg>