<?xml version="1.0" ?><!DOCTYPE svg  PUBLIC '-//W3C//DTD SVG 1.0//EN'  'http://www.w3.org/TR/2001/REC-SVG-20010904/DTD/svg10.dtd'><svg enable-background="new 0 0 350 350" height="350px" id="Layer_1" version="1.0" viewBox="0 0 350 350" width="350px" xml:space="preserve" xmlns="http://www.w3.org/2000/svg" xmlns:xlink="http://www.w3.org/1999/xlink"><g><path d="M151.188,107.601c0,2.716,1.663,4.966,3.813,5.323c0.01,0.096,0.018,0.211,0.032,0.307   c1.038,7.39,9.859,18.671,18.558,18.463c8.152-0.197,16.193-11.405,17.595-18.396c0.03-0.15,0.051-0.33,0.08-0.479   c2.069-0.651,3.593-2.955,3.593-5.396c0-1.801-1.413-3.692-2.746-4.668c0.014-0.067,0.075-0.418,0.069-0.437   c2.996-15.985-6.935-22.586-17.947-22.586c-10.904,0-22.014,6.494-19.654,22.619C152.623,103.142,151.188,105.409,151.188,107.601z    M164.781,93.475c5.305,8.492,12.169,10.643,25.855,9.932c-14.026,3.086-21.751,2.262-25.315-5.589   c-1.584,6.358-3.854,7.007-8.742,5.613C161.458,103.253,161.329,101.955,164.781,93.475z" fill="#333333"/><path d="M237.654,140.246l-10.611,5.844c-0.641,0.472-1.209,1.05-1.683,1.714l-12.869,18.005l-11.317-16.243   c-0.374-0.616-0.807-1.234-1.291-1.853l-0.457-0.656c-0.476-0.681-1.031-1.254-1.642-1.721c-3.709-3.783-8.872-7.342-13.157-9.732   l-6.696,33.876c-1-7.153-4.377-24.129-4.377-24.129l2.98-2.706c0-3.175-3.742-6.698-3.742-6.698s-3.766,3.2-3.766,6.431l2.93,3.016   c0,0-3.15,16.402-4.004,23.756l-7.895-33.547c-4.493,2.479-9.317,5.872-12.637,9.642c-0.666,0.484-1.273,1.086-1.784,1.819   l-13.065,18.748l-12.868-18.007c-0.477-0.665-1.043-1.246-1.684-1.717l-10.933-5.589c-2.51-1.852-5.924-1.141-7.624,1.593   c-1.701,2.735-1.045,6.447,1.464,8.299l7.852,8.256l18.045,25.269c1.398,1.955,3.546,3.084,5.82,3.084c0.015,0,0.03,0,0.045,0   c2.29,0,4.444-1.174,5.829-3.162l5.227-7.506l8.907,161.75c0,0,0.3,8.386,6.718,8.386s6.474-8.045,6.474-8.045L171.957,254h5.103   c0,0,5.987,82.986,6.291,84.819c0.304,1.834,1.022,7.64,6.488,7.64c5.467,0,6.343-3.469,6.697-8.172   c0.277-3.677,4.333-124.334,5.713-160.654l4.294,6.204c1.385,1.988,3.538,3.163,5.83,3.163c0.016,0,0.03,0,0.044,0   c2.274,0,4.423-1.129,5.82-3.084l19.057-28.268l6.801-5.034c2.626-1.938,3.312-5.815,1.533-8.674S240.279,138.308,237.654,140.246z   " fill="#333333"/><path d="M219.185,91.548c1.463,0.892,3.176,1.452,5.015,1.452h45.388c5.334,0,9.413-4.397,9.413-9.731V41.744   c0-5.333-4.079-9.744-9.413-9.744h-45.388c-5.334,0-9.199,4.41-9.199,9.744v41.525c0,0.234-0.211,0.462-0.193,0.692l-7.828,12.771   L219.185,91.548z" fill="#333333"/><path d="M150.679,52h17.564l3.368,11.454L175.681,52h19.675c4.196,0,7.645-3.036,7.645-7.232V11.68   c0-4.196-3.448-7.68-7.645-7.68h-44.677C146.482,4,143,7.484,143,11.68v33.087C143,48.964,146.482,52,150.679,52z" fill="#333333"/><path d="M315.886,102h-46.244c-4.297,0-7.642,3.101-7.642,7.398v10.77l-15.446,2.802L262,130.391v13.662   c0,4.297,3.345,7.947,7.642,7.947h46.244c4.297,0,8.114-3.65,8.114-7.947v-34.655C324,105.101,320.183,102,315.886,102z" fill="#333333"/><path d="M90,115.541v-20.94C90,89.942,86.19,86,81.532,86H31.769C27.11,86,23,89.942,23,94.601v36.244   c0,4.658,4.11,8.155,8.769,8.155h49.764c4.658,0,8.468-3.497,8.468-8.155v-5.263l15.465-4.542L90,115.541z" fill="#333333"/><path d="M77.681,73h40.101l11.688,8.858l-3.943-14.044c0.21-0.666,0.474-1.461,0.474-2.196V35.252   c0-3.881-3.448-7.252-7.33-7.252h-40.99C73.8,28,71,31.371,71,35.252v30.367C71,69.5,73.8,73,77.681,73z" fill="#333333"/></g></svg>